<svg width="25" height="24" viewBox="0 0 25 24" fill="none" xmlns="http://www.w3.org/2000/svg">
<g clip-path="url(#clip0_9_770)">
<path fill-rule="evenodd" clip-rule="evenodd" d="M12.75 2.25C7.36522 2.25 3 6.61522 3 12C3 17.3848 7.36522 21.75 12.75 21.75C18.1348 21.75 22.5 17.3848 22.5 12C22.4933 6.61801 18.132 2.25671 12.75 2.25ZM8.625 13.125C8.00368 13.125 7.5 12.6213 7.5 12C7.5 11.3787 8.00368 10.875 8.625 10.875C9.24632 10.875 9.75 11.3787 9.75 12C9.75 12.6213 9.24632 13.125 8.625 13.125ZM12.75 13.125C12.1287 13.125 11.625 12.6213 11.625 12C11.625 11.3787 12.1287 10.875 12.75 10.875C13.3713 10.875 13.875 11.3787 13.875 12C13.875 12.6213 13.3713 13.125 12.75 13.125ZM16.875 13.125C16.2537 13.125 15.75 12.6213 15.75 12C15.75 11.3787 16.2537 10.875 16.875 10.875C17.4963 10.875 18 11.3787 18 12C18 12.6213 17.4963 13.125 16.875 13.125Z" fill="#1C170D"/>
</g>
<defs>
<clipPath id="clip0_9_770">
<rect width="24" height="24" fill="white" transform="translate(0.75)"/>
</clipPath>
</defs>
</svg>
