<svg width="25" height="24" viewBox="0 0 25 24" fill="none" xmlns="http://www.w3.org/2000/svg">
<g clip-path="url(#clip0_9_784)">
<path fill-rule="evenodd" clip-rule="evenodd" d="M12.75 2.25C7.36522 2.25 3 6.61522 3 12C3 17.3848 7.36522 21.75 12.75 21.75C18.1348 21.75 22.5 17.3848 22.5 12C22.4943 6.61758 18.1324 2.25568 12.75 2.25ZM7.695 18.5156C8.7976 16.7912 10.7032 15.7478 12.75 15.7478C14.7968 15.7478 16.7024 16.7912 17.805 18.5156C14.8317 20.828 10.6683 20.828 7.695 18.5156ZM9.75 11.25C9.75 9.59315 11.0931 8.25 12.75 8.25C14.4069 8.25 15.75 9.59315 15.75 11.25C15.75 12.9069 14.4069 14.25 12.75 14.25C11.0931 14.25 9.75 12.9069 9.75 11.25ZM18.915 17.4759C18.0785 16.2638 16.9024 15.3261 15.5344 14.7806C17.0406 13.5943 17.6297 11.5838 17.0019 9.77207C16.3742 7.96039 14.6674 6.74548 12.75 6.74548C10.8326 6.74548 9.12584 7.96039 8.49805 9.77207C7.87026 11.5838 8.45936 13.5943 9.96562 14.7806C8.59764 15.3261 7.42147 16.2638 6.585 17.4759C3.64046 14.1647 3.83752 9.11881 7.03133 6.0473C10.2251 2.97579 15.2749 2.97579 18.4687 6.0473C21.6625 9.11881 21.8595 14.1647 18.915 17.4759Z" fill="#A1824A"/>
</g>
<defs>
<clipPath id="clip0_9_784">
<rect width="24" height="24" fill="white" transform="translate(0.75)"/>
</clipPath>
</defs>
</svg>
