<svg width="25" height="24" viewBox="0 0 25 24" fill="none" xmlns="http://www.w3.org/2000/svg">
<g clip-path="url(#clip0_9_791)">
<path fill-rule="evenodd" clip-rule="evenodd" d="M16.75 5.25H7.75C4.02208 5.25 1 8.27208 1 12C1 15.7279 4.02208 18.75 7.75 18.75H16.75C20.4779 18.75 23.5 15.7279 23.5 12C23.5 8.27208 20.4779 5.25 16.75 5.25ZM16.75 17.25H7.75C4.8505 17.25 2.5 14.8995 2.5 12C2.5 9.1005 4.8505 6.75 7.75 6.75H16.75C19.6495 6.75 22 9.1005 22 12C22 14.8995 19.6495 17.25 16.75 17.25ZM16.75 8.25C14.6789 8.25 13 9.92893 13 12C13 14.0711 14.6789 15.75 16.75 15.75C18.8211 15.75 20.5 14.0711 20.5 12C20.5 9.92893 18.8211 8.25 16.75 8.25ZM16.75 14.25C15.5074 14.25 14.5 13.2426 14.5 12C14.5 10.7574 15.5074 9.75 16.75 9.75C17.9926 9.75 19 10.7574 19 12C19 13.2426 17.9926 14.25 16.75 14.25Z" fill="#A1824A"/>
</g>
<defs>
<clipPath id="clip0_9_791">
<rect width="24" height="24" fill="white" transform="translate(0.25)"/>
</clipPath>
</defs>
</svg>
